# xmcd CD database file
#
# Track frame offsets:
#	150
#	16729
#	32936
#	47921
#	65531
#	83878
#	104326
#	125454
#	141445
#	151998
#	173448
#
# Disc length: 2602 seconds
#
# Revision: 0
# Processed by: cddbd v1.5.2PL0 Copyright (c) Steve Scherf et al.
# Submitted via: CDex 1.76
#
DISCID=8d0a280b
DTITLE=Majik Ninja Entertainment - MNE Sampler Record Store Day 2015
DYEAR=2015
DGENRE=Horrorcore
TTITLE0=Twiztid - A Little Fucked Up
TTITLE1=Twiztid - Back To Hell
TTITLE2=Twiztid - F.T.S.
TTITLE3=Twiztid - Breakdown
TTITLE4=Twiztid - Bad Side
TTITLE5=Twiztid - Unstoppable
TTITLE6=Twiztid - LDLHAM-IBCSYWA
TTITLE7=Blaze Ya Dead Homie - Ghost Bars
TTITLE8=Blaze Ya Dead Homie - Napalm
TTITLE9=Blaze Ya Dead Homie - Give 'Em What They Want (feat. The R.O.C.)
TTITLE10=Blaze Ya Dead Homie - Rock It Out
EXTD=YEAR: 2015
EXTT0=
EXTT1=
EXTT2=
EXTT3=
EXTT4=
EXTT5=
EXTT6=
EXTT7=
EXTT8=
EXTT9=
EXTT10=
PLAYORDER=
